<svg id="SvgjsSvg1035" width="288" height="288" xmlns="http://www.w3.org/2000/svg" version="1.1" xmlns:xlink="http://www.w3.org/1999/xlink" xmlns:svgjs="http://svgjs.com/svgjs"><defs id="SvgjsDefs1036"></defs><g id="SvgjsG1037"><svg xmlns="http://www.w3.org/2000/svg" viewBox="0 0 48 48" width="288" height="288"><path style="line-height:normal;text-indent:0;text-align:start;text-decoration-line:none;text-decoration-style:solid;text-decoration-color:#000;text-transform:none;block-progression:tb;isolation:auto;mix-blend-mode:normal" d="M24 0C10.751 0 0 10.751 0 24s10.751 24 24 24 24-10.751 24-24S37.249 0 24 0zm0 1c12.708 0 23 10.292 23 23 0 12.709-10.292 23-23 23S1 36.709 1 24C1 11.292 11.292 1 24 1zm-9.795 15a.501.5 75 0 0-.408.25l-4.729 8.225a.501.5 75 0 0 .182.685l3.07 1.78a.501.5 75 0 0 .682-.182l1.137-1.977.845.49.926.538a4.449 4.449 0 0 0 1.295 3.128 1.544 1.544 0 0 0 .02 1.485c.3.523.869.687 1.437.648-.017.29-.044.587.11.854.398.693 1.266.915 1.976.58.02.213-.032.43.08.625.42.73 1.37.987 2.098.564l1.078-.625 1.068.62a1.541 1.541 0 0 0 2.098-.565c.112-.196.06-.412.08-.625.71.335 1.578.113 1.977-.58.153-.267.126-.564.109-.854.568.04 1.137-.124 1.437-.648.302-.524.16-1.1-.16-1.574.259-.13.528-.255.682-.522a.5.5 0 0 0 .002 0c.021-.037.033-.077.05-.115a.5.5 0 0 0 .16-.166c.395-.68.6-1.455.6-2.242l.395-.229.512-.297.511-.296.334-.194 1.135 1.973a.5.5 0 0 0 .686.183l3.07-1.779a.5.5 0 0 0 .184-.681l-4.729-8.225a.5.5 0 0 0-.459-.25.5.5 0 0 0-.226.064l-3.07 1.782a.5.5 0 0 0-.182.681l.138.242-.338.196-.511.297-.512.297-.406.236a4.445 4.445 0 0 0-2.748-.568 4.382 4.382 0 0 0-1.674.562.5.5 0 0 0-.002 0l-.135.08-.074.043-.235-.129a4.624 4.624 0 0 0-1.68-.537 4.494 4.494 0 0 0-2.726.553l-.924-.535-.85-.493.14-.242a.501.5 75 0 0-.182-.683l-3.07-1.782a.501.5 75 0 0-.274-.066zm.207 1.186 2.205 1.277-4.23 7.36-2.205-1.28 4.23-7.357zm19.176 0 4.23 7.357-2.207 1.28-4.23-7.358 2.207-1.28zm-16.494 2.453.845.49.545.316a4.434 4.434 0 0 0-.779.992l-1.213 2.112a4.448 4.448 0 0 0-.451 1.178l-.555-.323-.85-.492 2.458-4.273zm13.81 0 2.457 4.275-.336.193-.511.297a.5.5 0 0 0-.002 0l-.512.3-.023.015a4.516 4.516 0 0 0-.434-1.092.5.5 0 0 0-.035-.072l-1.213-2.11a4.512 4.512 0 0 0-.383-.562 4.45 4.45 0 0 0-.398-.43l.033-.021.512-.297.511-.297.334-.193v-.006zm-4.22.558a3.43 3.43 0 0 1 2.334 1.166c.151.173.29.364.41.573l1.213 2.109a.5.5 0 0 0 .004.01 3.47 3.47 0 0 1 .394 2.404 1.488 1.488 0 0 0-.305-.242l-4.091-2.373c.024-.302-.031-.61-.176-.893a.5.5 0 0 0-.008-.021.5.5 0 0 0-.021-.043.5.5 0 0 0-.014-.028 1.621 1.621 0 0 0-.45-.5h-.001a1.751 1.751 0 0 0-1.903-.088.5.5 0 0 0-.02.01l-.05.033-2.21 1.28a.5.5 0 0 0-.081.058l-.047.026c-.503.291-1.099.096-1.572-.33l1.332-.776 1.385-.802a.5.5 0 0 0 .013-.01h.004l1.45-.84a.5.5 0 0 0 .001 0l.444-.26h.002a3.415 3.415 0 0 1 1.963-.457v-.006zm-4.961.018c.415.025.834.13 1.24.305l-.64.37a.5.5 0 0 0-.016.012l-1.387.803a.5.5 0 0 0-.002 0L19 22.822a.5.5 0 0 0-.182.682c.694 1.207 2.187 1.708 3.344 1.037l2.24-1.299a.5.5 0 0 0 .02-.013l.096-.063.054-.031c.356-.207.749-.109.95.183a.5.5 0 0 0-.184.928l.38.22a.5.5 0 0 0 .243.141l4.271 2.477c.265.153.35.47.198.736a.52.52 0 0 1-.729.198l-4.863-2.819-.512-.297a.5.5 0 1 0-.502.866l5.078 2.943.297.172.512.297a.53.53 0 0 1 .195.738.518.518 0 0 1-.728.195l-.512-.297L24.1 27.17l-.297-.172-.512-.297a.5.5 0 0 0-.502.865l.512.297 4.863 2.819a.53.53 0 0 1 .197.736.5.5 0 0 0-.002 0 .519.519 0 0 1-.728.197l-1.024-.594-4.35-2.523-1.025-.594a.5.5 0 0 0-.5.866l5.373 3.117c.265.153.35.47.198.736a.519.519 0 0 1-.729.197l-5.064-2.935a.5.5 0 0 0-.006 0l-.305-.178a.5.5 0 0 0-.008 0l-1.582-.918c-.102-.059-.185-.136-.279-.203a.5.5 0 0 0-.307-.229 3.459 3.459 0 0 1-.666-4.308l1.215-2.111a3.398 3.398 0 0 1 3.15-1.723zm-9.848 3.265a.591.594 0 0 0-.465.297.591.594 0 0 0 .217.81.591.594 0 0 0 .807-.216.591.594 0 0 0-.217-.81.591.594 0 0 0-.281-.08.591.594 0 0 0-.061 0zm24.19 0a.591.594 0 0 0-.284.08.591.594 0 0 0-.215.811.591.594 0 0 0 .807.217.591.594 0 0 0 .217-.81.591.594 0 0 0-.526-.298zm-18.04 6.116c.03.018.053.04.082.058l.754.438a.5.5 0 0 0-.04.021.518.518 0 0 1-.73-.195.538.538 0 0 1-.066-.322zm1.836 1.068v.002l.141.082h.002l.93.54-.569.33a.52.52 0 0 1-.728-.198.53.53 0 0 1 .197-.736.5.5 0 0 0 .027-.02zm2.073 1.203a.5.5 0 0 0 .002 0l1.07.623-.582.338a.52.52 0 0 1-.729-.197.528.528 0 0 1 .196-.736.5.5 0 0 0 .043-.028z" color="#000" font-family="sans-serif" font-weight="400" overflow="visible" fill="#fb923c" class="color000 svgShape"></path></svg></g></svg>